<svg width="14" height="190" viewBox="0 0 14 190" fill="none" xmlns="http://www.w3.org/2000/svg">
<path d="M-1.08579e-07 2.484L-1.99062e-07 4.554L13.122 4.554L13.122 0.81L11.25 0.81L11.25 2.484L-1.08579e-07 2.484ZM-9.89493e-07 22.637L-1.07762e-06 24.653L2.736 24.653L2.736 26.327L4.518 26.327L4.518 24.653L12.96 24.653L12.96 22.169L4.284 16.121L2.736 16.121L2.736 22.637L-9.89493e-07 22.637ZM4.518 18.479L10.872 22.727L4.518 22.727L4.518 18.479ZM-2.2281e-06 50.973L-2.3178e-06 53.025L5.472 53.025L5.472 57.165L7.146 57.165L7.146 53.025L10.836 53.025L10.836 58.335L12.51 58.335L12.51 50.973L-2.2281e-06 50.973ZM12.528 76.1487L12.528 69.2367L-3.02643e-06 69.2367L-3.32857e-06 76.1487L1.674 76.1487L1.674 71.2887L5.508 71.2887L5.508 75.6087L7.182 75.6087L7.182 71.2887L10.854 71.2887L10.854 76.1487L12.528 76.1487ZM3.582 94.7322C2.376 94.7322 1.674 93.8862 1.674 92.5002L1.674 89.7282L5.58 89.7282L5.58 92.4282C5.58 93.7962 4.824 94.7322 3.582 94.7322ZM9.036 94.4082C7.884 94.4082 7.254 93.5982 7.254 92.2662L7.254 89.7282L10.836 89.7282L10.836 92.2662C10.836 93.5982 10.17 94.4082 9.036 94.4082ZM3.366 96.7842C4.86 96.7842 6.192 95.7042 6.426 94.3722C6.858 95.5782 7.776 96.4962 9.288 96.4962C11.052 96.4962 12.51 95.0922 12.51 92.4462L12.51 87.6762L-3.83245e-06 87.6762L-4.05118e-06 92.6802C-4.16291e-06 95.2362 1.458 96.7842 3.366 96.7842ZM0.179995 121.258L0.179994 130.006L1.88999 130.006L1.88999 124.3C3.81599 126.406 6.24599 129.646 9.432 129.646C11.79 129.646 13.392 128.134 13.392 125.47C13.392 123.148 12.006 121.312 9.16199 121.24L9.16199 123.22C10.638 123.274 11.646 124.048 11.646 125.488C11.646 127.018 10.71 127.612 9.342 127.612C6.76799 127.612 4.39199 124.354 1.67399 121.258L0.179995 121.258ZM6.73199 140.809C2.91599 140.809 0.0359938 141.817 0.0359936 145.489C0.0359935 149.161 2.91599 150.169 6.73199 150.169C10.476 150.169 13.356 149.161 13.356 145.489C13.356 141.817 10.476 140.809 6.73199 140.809ZM6.73199 148.153C4.15799 148.153 1.90799 147.883 1.90799 145.489C1.90799 143.095 4.15799 142.825 6.73199 142.825C9.17999 142.825 11.484 143.095 11.484 145.489C11.484 147.883 9.17999 148.153 6.73199 148.153ZM0.179993 161.178L0.179993 169.926L1.88999 169.926L1.88999 164.22C3.81599 166.326 6.24599 169.566 9.43199 169.566C11.79 169.566 13.392 168.054 13.392 165.39C13.392 163.068 12.006 161.232 9.16199 161.16L9.16199 163.14C10.638 163.194 11.646 163.968 11.646 165.408C11.646 166.938 10.71 167.532 9.34199 167.532C6.76799 167.532 4.39199 164.274 1.67399 161.178L0.179993 161.178ZM0.179992 180.566L0.179992 189.314L1.88999 189.314L1.88999 183.608C3.81599 185.714 6.24599 188.954 9.43199 188.954C11.79 188.954 13.392 187.442 13.392 184.778C13.392 182.456 12.006 180.62 9.16199 180.548L9.16199 182.528C10.638 182.582 11.646 183.356 11.646 184.796C11.646 186.326 10.71 186.92 9.34199 186.92C6.76799 186.92 4.39199 183.662 1.67399 180.566L0.179992 180.566Z" fill="black" fill-opacity="0.5"/>
</svg>
