<svg width="15" height="195" viewBox="0 0 15 195" fill="none" xmlns="http://www.w3.org/2000/svg">
<path d="M1 2.484L1 4.554L14.122 4.554L14.122 0.81L12.25 0.81L12.25 2.484L1 2.484ZM7.858 18.587C7.372 17.273 6.202 16.391 4.618 16.391C2.224 16.391 0.675999 18.335 0.675999 21.035C0.675999 23.753 2.224 25.697 4.618 25.697C6.184 25.697 7.354 24.815 7.858 23.483C8.38 24.545 9.406 25.355 10.81 25.355C12.7 25.355 14.356 23.933 14.356 21.035C14.356 18.137 12.718 16.715 10.81 16.715C9.352 16.715 8.416 17.471 7.858 18.587ZM8.506 21.035C8.506 19.667 9.352 18.695 10.54 18.695C11.926 18.695 12.646 19.631 12.646 21.035C12.646 22.475 11.908 23.393 10.558 23.393C9.37 23.393 8.506 22.403 8.506 21.035ZM6.958 21.035C6.958 22.583 6.166 23.681 4.69 23.681C3.376 23.681 2.386 22.691 2.386 21.035C2.386 19.361 3.358 18.353 4.69 18.353C6.22 18.353 6.958 19.523 6.958 21.035ZM4.492 55.5493C3.448 55.5493 2.692 55.0273 2.692 53.9293C2.692 52.8313 3.448 52.3273 4.492 52.3093L4.492 50.2393C2.224 50.2393 0.873998 51.7693 0.873998 53.9293C0.873998 56.0893 2.224 57.6193 4.492 57.6193L13.51 57.6193L13.51 55.5493L4.492 55.5493ZM5.572 69.9394C2.386 69.9394 0.873997 72.1714 0.873997 74.7994C0.873997 77.4094 2.386 79.7134 5.572 79.7134L13.51 79.7134L13.51 77.6614L5.536 77.6614C3.592 77.6614 2.674 76.5634 2.674 74.8174C2.674 73.0894 3.592 71.9914 5.536 71.9914L13.51 71.9914L13.51 69.9394L5.572 69.9394ZM13.528 99.6112L4.204 99.6112L13.528 93.4372L13.528 91.3852L0.999996 91.3852L0.999996 93.4372L10.342 93.4372L0.999996 99.6112L0.999996 101.663L13.528 101.663L13.528 99.6112ZM1.17999 126.602L1.17999 135.35L2.88999 135.35L2.88999 129.644C4.81599 131.75 7.24599 134.99 10.432 134.99C12.79 134.99 14.392 133.478 14.392 130.814C14.392 128.492 13.006 126.656 10.162 126.584L10.162 128.564C11.638 128.618 12.646 129.392 12.646 130.832C12.646 132.362 11.71 132.956 10.342 132.956C7.76799 132.956 5.39199 129.698 2.67399 126.602L1.17999 126.602ZM7.73199 146.152C3.91599 146.152 1.03599 147.16 1.03599 150.832C1.03599 154.504 3.91599 155.512 7.73199 155.512C11.476 155.512 14.356 154.504 14.356 150.832C14.356 147.16 11.476 146.152 7.73199 146.152ZM7.73199 153.496C5.15799 153.496 2.90799 153.226 2.90799 150.832C2.90799 148.438 5.15799 148.168 7.73199 148.168C10.18 148.168 12.484 148.438 12.484 150.832C12.484 153.226 10.18 153.496 7.73199 153.496ZM1.17999 166.522L1.17999 175.27L2.88999 175.27L2.88999 169.564C4.81599 171.67 7.24599 174.91 10.432 174.91C12.79 174.91 14.392 173.398 14.392 170.734C14.392 168.412 13.006 166.576 10.162 166.504L10.162 168.484C11.638 168.538 12.646 169.312 12.646 170.752C12.646 172.282 11.71 172.876 10.342 172.876C7.76799 172.876 5.39199 169.618 2.67399 166.522L1.17999 166.522ZM1.17999 185.91L1.17999 194.658L2.88999 194.658L2.88999 188.952C4.81599 191.058 7.24599 194.298 10.432 194.298C12.79 194.298 14.392 192.786 14.392 190.122C14.392 187.8 13.006 185.964 10.162 185.892L10.162 187.872C11.638 187.926 12.646 188.7 12.646 190.14C12.646 191.67 11.71 192.264 10.342 192.264C7.76799 192.264 5.39199 189.006 2.67399 185.91L1.17999 185.91Z" fill="black" fill-opacity="0.5"/>
</svg>
