<svg width="15" height="199" viewBox="0 0 15 199" fill="none" xmlns="http://www.w3.org/2000/svg">
<path d="M1.18 0.917999L1.18 9.666L2.89 9.666L2.89 3.96C4.816 6.066 7.246 9.306 10.432 9.306C12.79 9.306 14.392 7.794 14.392 5.13C14.392 2.808 13.006 0.972 10.162 0.9L10.162 2.88C11.638 2.934 12.646 3.708 12.646 5.148C12.646 6.678 11.71 7.272 10.342 7.272C7.768 7.272 5.392 4.014 2.674 0.917999L1.18 0.917999ZM1.18 20.3067L1.18 29.0547L2.89 29.0547L2.89 23.3487C4.816 25.4547 7.246 28.6947 10.432 28.6947C12.79 28.6947 14.392 27.1827 14.392 24.5187C14.392 22.1967 13.006 20.3607 10.162 20.2887L10.162 22.2687C11.638 22.3227 12.646 23.0967 12.646 24.5367C12.646 26.0667 11.71 26.6607 10.342 26.6607C7.768 26.6607 5.392 23.4027 2.674 20.3067L1.18 20.3067ZM13.51 57.8891L13.51 53.8031L0.999998 53.8031L0.999997 57.8891C0.999997 61.9031 3.358 64.5311 7.21 64.5311C11.08 64.5311 13.51 61.9031 13.51 57.8891ZM2.674 55.8551L11.836 55.8551L11.836 57.8891C11.836 60.8411 10.072 62.4251 7.21 62.4251C4.366 62.4251 2.674 60.8411 2.674 57.8891L2.674 55.8551ZM13.528 82.4768L13.528 75.5648L0.999997 75.5648L0.999996 82.4768L2.674 82.4768L2.674 77.6168L6.508 77.6168L6.508 81.9368L8.182 81.9368L8.182 77.6168L11.854 77.6168L11.854 82.4768L13.528 82.4768ZM7.282 93.3203C3.52 93.3203 0.891996 96.1823 0.891996 99.7103C0.891996 102.32 2.188 104.57 4.636 105.524L4.636 103.058C3.304 102.392 2.674 101.204 2.674 99.7103C2.674 97.2263 4.456 95.4263 7.282 95.4263C10.108 95.4263 11.872 97.2263 11.872 99.7103C11.872 101.204 11.242 102.392 9.91 103.058L9.91 105.524C12.358 104.57 13.672 102.32 13.672 99.7103C13.672 96.1823 11.026 93.3203 7.282 93.3203ZM1.17999 130.17L1.17999 138.918L2.88999 138.918L2.88999 133.212C4.81599 135.318 7.24599 138.558 10.432 138.558C12.79 138.558 14.392 137.046 14.392 134.382C14.392 132.06 13.006 130.224 10.162 130.152L10.162 132.132C11.638 132.186 12.646 132.96 12.646 134.4C12.646 135.93 11.71 136.524 10.342 136.524C7.76799 136.524 5.39199 133.266 2.67399 130.17L1.17999 130.17ZM7.73199 149.721C3.91599 149.721 1.03599 150.729 1.03599 154.401C1.03599 158.073 3.91599 159.081 7.73199 159.081C11.476 159.081 14.356 158.073 14.356 154.401C14.356 150.729 11.476 149.721 7.73199 149.721ZM7.73199 157.065C5.15799 157.065 2.90799 156.795 2.90799 154.401C2.90799 152.007 5.15799 151.737 7.73199 151.737C10.18 151.737 12.484 152.007 12.484 154.401C12.484 156.795 10.18 157.065 7.73199 157.065ZM1.17999 170.09L1.17999 178.838L2.88999 178.838L2.88999 173.132C4.81599 175.238 7.24599 178.478 10.432 178.478C12.79 178.478 14.392 176.966 14.392 174.302C14.392 171.98 13.006 170.144 10.162 170.072L10.162 172.052C11.638 172.106 12.646 172.88 12.646 174.32C12.646 175.85 11.71 176.444 10.342 176.444C7.76799 176.444 5.39199 173.186 2.67399 170.09L1.17999 170.09ZM1.17999 189.479L1.17999 198.227L2.88999 198.227L2.88999 192.521C4.81599 194.627 7.24599 197.867 10.432 197.867C12.79 197.867 14.392 196.355 14.392 193.691C14.392 191.369 13.006 189.533 10.162 189.461L10.162 191.441C11.638 191.495 12.646 192.269 12.646 193.709C12.646 195.239 11.71 195.833 10.342 195.833C7.76799 195.833 5.39199 192.575 2.67399 189.479L1.17999 189.479Z" fill="black" fill-opacity="0.5"/>
</svg>
